<svg width="26" height="26" viewBox="0 0 26 26" fill="none" xmlns="http://www.w3.org/2000/svg">
<path d="M18.5341 1H7.46592C3.89455 1 1 3.89507 1 7.46592V18.5341C1 22.1054 3.89507 25 7.46643 25H18.5336C22.1049 25 25 22.1049 25 18.5336V7.46592C25 3.89455 22.1049 1 18.5336 1H18.5341Z" stroke="white" stroke-width="2" stroke-miterlimit="10"/>
<path d="M13.0002 18.7932C16.1997 18.7932 18.7934 16.1995 18.7934 13C18.7934 9.8005 16.1997 7.20679 13.0002 7.20679C9.80073 7.20679 7.20703 9.8005 7.20703 13C7.20703 16.1995 9.80073 18.7932 13.0002 18.7932Z" stroke="white" stroke-width="2" stroke-miterlimit="10"/>
<path d="M20.0342 7.20688C20.7198 7.20688 21.2755 6.65115 21.2755 5.96562C21.2755 5.2801 20.7198 4.72437 20.0342 4.72437C19.3487 4.72437 18.793 5.2801 18.793 5.96562C18.793 6.65115 19.3487 7.20688 20.0342 7.20688Z" fill="white"/>
</svg>
